<svg viewBox="0 0 1200 400" xmlns="http://www.w3.org/2000/svg" font-family="Inter, system-ui, -apple-system, sans-serif" role="img" aria-label="Meridian">
<defs><linearGradient id="ic" x1="0" y1="0" x2="1" y2="1"><stop offset="0" stop-color="#7c6ff7"/><stop offset="1" stop-color="#c084fc"/></linearGradient></defs>
<rect width="1200" height="400" fill="#0a0a0d"/>
<g transform="translate(56,120)">
<rect width="52" height="52" rx="13" fill="url(#ic)"/>
<circle cx="26" cy="26" r="11.5" fill="none" stroke="#fff" stroke-width="2"/>
<ellipse cx="26" cy="26" rx="4.4" ry="11.5" fill="none" stroke="#fff" stroke-width="2"/>
<line x1="14.5" y1="26" x2="37.5" y2="26" stroke="#fff" stroke-width="2"/>
</g>
<text x="56" y="212" font-size="46" font-weight="700" letter-spacing="-1.6" fill="#f0f0f3">Meridian</text>
<text x="57" y="240" font-size="14.5" fill="#8a8a99">Produtividade pessoal · um único arquivo HTML</text>
<text x="57" y="278" font-size="12" font-family="ui-monospace,Menlo,monospace" fill="#4a4a58">$ open meridian.html</text>
<text x="57" y="298" font-size="12" font-family="ui-monospace,Menlo,monospace" fill="#4a4a58">zero build · zero deps · roda offline</text>
<g transform="translate(560,40)">
<rect width="600" height="320" rx="12" fill="#101015" stroke="#22222b" stroke-width="1.5"/>
<rect width="600" height="30" rx="12" fill="#0d0d12"/>
<rect y="18" width="600" height="12" fill="#0d0d12"/>
<circle cx="18" cy="15" r="4" fill="#33333f"/>
<circle cx="34" cy="15" r="4" fill="#33333f"/>
<circle cx="50" cy="15" r="4" fill="#33333f"/>
<text x="300" y="19" text-anchor="middle" font-size="10" font-family="ui-monospace,monospace" fill="#4a4a58">meridian.html</text>
<rect y="30" width="112" height="290" fill="#0a0a0d"/>
<line x1="112" y1="30" x2="112" y2="320" stroke="#1c1c24" stroke-width="1"/>
<g font-size="10.5" fill="#8a8a99" font-weight="600">
<text x="16" y="55">Home</text>
<text x="16" y="79">Tasks</text>
<rect x="8" y="88" width="98" height="22" rx="6" fill="#1a1a22"/>
<rect x="8" y="88" width="2.5" height="22" fill="#c084fc"/>
<text x="16" y="103" fill="#f0f0f3">Projetos</text>
<text x="16" y="127">Foco</text>
<text x="16" y="151">Stats</text>
<text x="16" y="175">Links</text>
</g>
<text x="128" y="52" font-size="11" font-weight="700" fill="#f0f0f3">Projetos</text>
<rect x="128" y="64" width="215" height="72" rx="9" fill="#16161d" stroke="#22222b"/>
<circle cx="144" cy="80" r="4" fill="#7c6ff7"/>
<rect x="153" y="76" width="70" height="7" rx="3" fill="#3a3a46"/>
<rect x="144" y="100" width="180" height="4" rx="2" fill="#22222b"/>
<rect x="144" y="100" width="120" height="4" rx="2" fill="#7c6ff7"/>
<rect x="144" y="112" width="40" height="6" rx="3" fill="#2a2a34"/>
<rect x="353" y="64" width="215" height="72" rx="9" fill="#16161d" stroke="#22222b"/>
<circle cx="369" cy="80" r="4" fill="#34d399"/>
<rect x="378" y="76" width="55" height="7" rx="3" fill="#3a3a46"/>
<rect x="369" y="100" width="180" height="4" rx="2" fill="#22222b"/>
<rect x="369" y="100" width="60" height="4" rx="2" fill="#34d399"/>
<rect x="369" y="112" width="50" height="6" rx="3" fill="#2a2a34"/>
<rect x="128" y="146" width="215" height="72" rx="9" fill="#16161d" stroke="#22222b"/>
<circle cx="144" cy="162" r="4" fill="#60a5fa"/>
<rect x="153" y="158" width="80" height="7" rx="3" fill="#3a3a46"/>
<rect x="144" y="182" width="180" height="4" rx="2" fill="#22222b"/>
<rect x="144" y="182" width="170" height="4" rx="2" fill="#60a5fa"/>
<rect x="144" y="194" width="60" height="6" rx="3" fill="#2a2a34"/>
<rect x="353" y="146" width="215" height="72" rx="9" fill="#16161d" stroke="#22222b"/>
<circle cx="369" cy="162" r="4" fill="#fb923c"/>
<rect x="378" y="158" width="65" height="7" rx="3" fill="#3a3a46"/>
<rect x="369" y="182" width="180" height="4" rx="2" fill="#22222b"/>
<rect x="369" y="182" width="30" height="4" rx="2" fill="#fb923c"/>
<rect x="369" y="194" width="45" height="6" rx="3" fill="#2a2a34"/>
<text x="128" y="240" font-size="10" font-weight="700" fill="#8a8a99">Stats</text>
<g><rect x="128.0" y="250.0" width="8" height="8" rx="2" fill="#16161d"/><rect x="128.0" y="260.2" width="8" height="8" rx="2" fill="#16161d"/><rect x="128.0" y="270.4" width="8" height="8" rx="2" fill="#4a2f7a"/><rect x="128.0" y="280.6" width="8" height="8" rx="2" fill="#16161d"/><rect x="128.0" y="290.8" width="8" height="8" rx="2" fill="#2d1f4d"/><rect x="128.0" y="301.0" width="8" height="8" rx="2" fill="#16161d"/><rect x="128.0" y="311.2" width="8" height="8" rx="2" fill="#16161d"/><rect x="138.2" y="250.0" width="8" height="8" rx="2" fill="#2d1f4d"/><rect x="138.2" y="260.2" width="8" height="8" rx="2" fill="#16161d"/><rect x="138.2" y="270.4" width="8" height="8" rx="2" fill="#2d1f4d"/><rect x="138.2" y="280.6" width="8" height="8" rx="2" fill="#16161d"/><rect x="138.2" y="290.8" width="8" height="8" rx="2" fill="#16161d"/><rect x="138.2" y="301.0" width="8" height="8" rx="2" fill="#2d1f4d"/><rect x="138.2" y="311.2" width="8" height="8" rx="2" fill="#4a2f7a"/><rect x="148.4" y="250.0" width="8" height="8" rx="2" fill="#16161d"/><rect x="148.4" y="260.2" width="8" height="8" rx="2" fill="#16161d"/><rect x="148.4" y="270.4" width="8" height="8" rx="2" fill="#2d1f4d"/><rect x="148.4" y="280.6" width="8" height="8" rx="2" fill="#7c6ff7"/><rect x="148.4" y="290.8" width="8" height="8" rx="2" fill="#2d1f4d"/><rect x="148.4" y="301.0" width="8" height="8" rx="2" fill="#16161d"/><rect x="148.4" y="311.2" width="8" height="8" rx="2" fill="#c084fc"/><rect x="158.6" y="250.0" width="8" height="8" rx="2" fill="#16161d"/><rect x="158.6" y="260.2" width="8" height="8" rx="2" fill="#7c6ff7"/><rect x="158.6" y="270.4" width="8" height="8" rx="2" fill="#16161d"/><rect x="158.6" y="280.6" width="8" height="8" rx="2" fill="#16161d"/><rect x="158.6" y="290.8" width="8" height="8" rx="2" fill="#16161d"/><rect x="158.6" y="301.0" width="8" height="8" rx="2" fill="#16161d"/><rect x="158.6" y="311.2" width="8" height="8" rx="2" fill="#4a2f7a"/><rect x="168.8" y="250.0" width="8" height="8" rx="2" fill="#16161d"/><rect x="168.8" y="260.2" width="8" height="8" rx="2" fill="#2d1f4d"/><rect x="168.8" y="270.4" width="8" height="8" rx="2" fill="#2d1f4d"/><rect x="168.8" y="280.6" width="8" height="8" rx="2" fill="#16161d"/><rect x="168.8" y="290.8" width="8" height="8" rx="2" fill="#2d1f4d"/><rect x="168.8" y="301.0" width="8" height="8" rx="2" fill="#16161d"/><rect x="168.8" y="311.2" width="8" height="8" rx="2" fill="#16161d"/><rect x="179.0" y="250.0" width="8" height="8" rx="2" fill="#16161d"/><rect x="179.0" y="260.2" width="8" height="8" rx="2" fill="#4a2f7a"/><rect x="179.0" y="270.4" width="8" height="8" rx="2" fill="#2d1f4d"/><rect x="179.0" y="280.6" width="8" height="8" rx="2" fill="#16161d"/><rect x="179.0" y="290.8" width="8" height="8" rx="2" fill="#2d1f4d"/><rect x="179.0" y="301.0" width="8" height="8" rx="2" fill="#2d1f4d"/><rect x="179.0" y="311.2" width="8" height="8" rx="2" fill="#16161d"/><rect x="189.2" y="250.0" width="8" height="8" rx="2" fill="#4a2f7a"/><rect x="189.2" y="260.2" width="8" height="8" rx="2" fill="#4a2f7a"/><rect x="189.2" y="270.4" width="8" height="8" rx="2" fill="#16161d"/><rect x="189.2" y="280.6" width="8" height="8" rx="2" fill="#2d1f4d"/><rect x="189.2" y="290.8" width="8" height="8" rx="2" fill="#2d1f4d"/><rect x="189.2" y="301.0" width="8" height="8" rx="2" fill="#7c6ff7"/><rect x="189.2" y="311.2" width="8" height="8" rx="2" fill="#4a2f7a"/><rect x="199.4" y="250.0" width="8" height="8" rx="2" fill="#16161d"/><rect x="199.4" y="260.2" width="8" height="8" rx="2" fill="#c084fc"/><rect x="199.4" y="270.4" width="8" height="8" rx="2" fill="#16161d"/><rect x="199.4" y="280.6" width="8" height="8" rx="2" fill="#2d1f4d"/><rect x="199.4" y="290.8" width="8" height="8" rx="2" fill="#4a2f7a"/><rect x="199.4" y="301.0" width="8" height="8" rx="2" fill="#16161d"/><rect x="199.4" y="311.2" width="8" height="8" rx="2" fill="#2d1f4d"/><rect x="209.6" y="250.0" width="8" height="8" rx="2" fill="#16161d"/><rect x="209.6" y="260.2" width="8" height="8" rx="2" fill="#4a2f7a"/><rect x="209.6" y="270.4" width="8" height="8" rx="2" fill="#4a2f7a"/><rect x="209.6" y="280.6" width="8" height="8" rx="2" fill="#2d1f4d"/><rect x="209.6" y="290.8" width="8" height="8" rx="2" fill="#7c6ff7"/><rect x="209.6" y="301.0" width="8" height="8" rx="2" fill="#16161d"/><rect x="209.6" y="311.2" width="8" height="8" rx="2" fill="#4a2f7a"/><rect x="219.8" y="250.0" width="8" height="8" rx="2" fill="#2d1f4d"/><rect x="219.8" y="260.2" width="8" height="8" rx="2" fill="#2d1f4d"/><rect x="219.8" y="270.4" width="8" height="8" rx="2" fill="#2d1f4d"/><rect x="219.8" y="280.6" width="8" height="8" rx="2" fill="#7c6ff7"/><rect x="219.8" y="290.8" width="8" height="8" rx="2" fill="#7c6ff7"/><rect x="219.8" y="301.0" width="8" height="8" rx="2" fill="#2d1f4d"/><rect x="219.8" y="311.2" width="8" height="8" rx="2" fill="#4a2f7a"/><rect x="230.0" y="250.0" width="8" height="8" rx="2" fill="#16161d"/><rect x="230.0" y="260.2" width="8" height="8" rx="2" fill="#4a2f7a"/><rect x="230.0" y="270.4" width="8" height="8" rx="2" fill="#2d1f4d"/><rect x="230.0" y="280.6" width="8" height="8" rx="2" fill="#c084fc"/><rect x="230.0" y="290.8" width="8" height="8" rx="2" fill="#4a2f7a"/><rect x="230.0" y="301.0" width="8" height="8" rx="2" fill="#16161d"/><rect x="230.0" y="311.2" width="8" height="8" rx="2" fill="#16161d"/><rect x="240.2" y="250.0" width="8" height="8" rx="2" fill="#4a2f7a"/><rect x="240.2" y="260.2" width="8" height="8" rx="2" fill="#16161d"/><rect x="240.2" y="270.4" width="8" height="8" rx="2" fill="#2d1f4d"/><rect x="240.2" y="280.6" width="8" height="8" rx="2" fill="#16161d"/><rect x="240.2" y="290.8" width="8" height="8" rx="2" fill="#16161d"/><rect x="240.2" y="301.0" width="8" height="8" rx="2" fill="#16161d"/><rect x="240.2" y="311.2" width="8" height="8" rx="2" fill="#4a2f7a"/><rect x="250.4" y="250.0" width="8" height="8" rx="2" fill="#16161d"/><rect x="250.4" y="260.2" width="8" height="8" rx="2" fill="#16161d"/><rect x="250.4" y="270.4" width="8" height="8" rx="2" fill="#16161d"/><rect x="250.4" y="280.6" width="8" height="8" rx="2" fill="#7c6ff7"/><rect x="250.4" y="290.8" width="8" height="8" rx="2" fill="#16161d"/><rect x="250.4" y="301.0" width="8" height="8" rx="2" fill="#2d1f4d"/><rect x="250.4" y="311.2" width="8" height="8" rx="2" fill="#2d1f4d"/><rect x="260.6" y="250.0" width="8" height="8" rx="2" fill="#7c6ff7"/><rect x="260.6" y="260.2" width="8" height="8" rx="2" fill="#4a2f7a"/><rect x="260.6" y="270.4" width="8" height="8" rx="2" fill="#7c6ff7"/><rect x="260.6" y="280.6" width="8" height="8" rx="2" fill="#16161d"/><rect x="260.6" y="290.8" width="8" height="8" rx="2" fill="#2d1f4d"/><rect x="260.6" y="301.0" width="8" height="8" rx="2" fill="#16161d"/><rect x="260.6" y="311.2" width="8" height="8" rx="2" fill="#7c6ff7"/><rect x="270.8" y="250.0" width="8" height="8" rx="2" fill="#c084fc"/><rect x="270.8" y="260.2" width="8" height="8" rx="2" fill="#16161d"/><rect x="270.8" y="270.4" width="8" height="8" rx="2" fill="#16161d"/><rect x="270.8" y="280.6" width="8" height="8" rx="2" fill="#16161d"/><rect x="270.8" y="290.8" width="8" height="8" rx="2" fill="#16161d"/><rect x="270.8" y="301.0" width="8" height="8" rx="2" fill="#2d1f4d"/><rect x="270.8" y="311.2" width="8" height="8" rx="2" fill="#2d1f4d"/><rect x="281.0" y="250.0" width="8" height="8" rx="2" fill="#16161d"/><rect x="281.0" y="260.2" width="8" height="8" rx="2" fill="#16161d"/><rect x="281.0" y="270.4" width="8" height="8" rx="2" fill="#2d1f4d"/><rect x="281.0" y="280.6" width="8" height="8" rx="2" fill="#16161d"/><rect x="281.0" y="290.8" width="8" height="8" rx="2" fill="#2d1f4d"/><rect x="281.0" y="301.0" width="8" height="8" rx="2" fill="#c084fc"/><rect x="281.0" y="311.2" width="8" height="8" rx="2" fill="#4a2f7a"/><rect x="291.2" y="250.0" width="8" height="8" rx="2" fill="#2d1f4d"/><rect x="291.2" y="260.2" width="8" height="8" rx="2" fill="#2d1f4d"/><rect x="291.2" y="270.4" width="8" height="8" rx="2" fill="#4a2f7a"/><rect x="291.2" y="280.6" width="8" height="8" rx="2" fill="#16161d"/><rect x="291.2" y="290.8" width="8" height="8" rx="2" fill="#7c6ff7"/><rect x="291.2" y="301.0" width="8" height="8" rx="2" fill="#4a2f7a"/><rect x="291.2" y="311.2" width="8" height="8" rx="2" fill="#7c6ff7"/><rect x="301.4" y="250.0" width="8" height="8" rx="2" fill="#4a2f7a"/><rect x="301.4" y="260.2" width="8" height="8" rx="2" fill="#16161d"/><rect x="301.4" y="270.4" width="8" height="8" rx="2" fill="#16161d"/><rect x="301.4" y="280.6" width="8" height="8" rx="2" fill="#16161d"/><rect x="301.4" y="290.8" width="8" height="8" rx="2" fill="#2d1f4d"/><rect x="301.4" y="301.0" width="8" height="8" rx="2" fill="#16161d"/><rect x="301.4" y="311.2" width="8" height="8" rx="2" fill="#16161d"/><rect x="311.6" y="250.0" width="8" height="8" rx="2" fill="#16161d"/><rect x="311.6" y="260.2" width="8" height="8" rx="2" fill="#16161d"/><rect x="311.6" y="270.4" width="8" height="8" rx="2" fill="#16161d"/><rect x="311.6" y="280.6" width="8" height="8" rx="2" fill="#16161d"/><rect x="311.6" y="290.8" width="8" height="8" rx="2" fill="#16161d"/><rect x="311.6" y="301.0" width="8" height="8" rx="2" fill="#16161d"/><rect x="311.6" y="311.2" width="8" height="8" rx="2" fill="#16161d"/><rect x="321.8" y="250.0" width="8" height="8" rx="2" fill="#16161d"/><rect x="321.8" y="260.2" width="8" height="8" rx="2" fill="#16161d"/><rect x="321.8" y="270.4" width="8" height="8" rx="2" fill="#7c6ff7"/><rect x="321.8" y="280.6" width="8" height="8" rx="2" fill="#2d1f4d"/><rect x="321.8" y="290.8" width="8" height="8" rx="2" fill="#16161d"/><rect x="321.8" y="301.0" width="8" height="8" rx="2" fill="#16161d"/><rect x="321.8" y="311.2" width="8" height="8" rx="2" fill="#16161d"/><rect x="332.0" y="250.0" width="8" height="8" rx="2" fill="#16161d"/><rect x="332.0" y="260.2" width="8" height="8" rx="2" fill="#16161d"/><rect x="332.0" y="270.4" width="8" height="8" rx="2" fill="#7c6ff7"/><rect x="332.0" y="280.6" width="8" height="8" rx="2" fill="#c084fc"/><rect x="332.0" y="290.8" width="8" height="8" rx="2" fill="#2d1f4d"/><rect x="332.0" y="301.0" width="8" height="8" rx="2" fill="#2d1f4d"/><rect x="332.0" y="311.2" width="8" height="8" rx="2" fill="#16161d"/><rect x="342.2" y="250.0" width="8" height="8" rx="2" fill="#16161d"/><rect x="342.2" y="260.2" width="8" height="8" rx="2" fill="#16161d"/><rect x="342.2" y="270.4" width="8" height="8" rx="2" fill="#16161d"/><rect x="342.2" y="280.6" width="8" height="8" rx="2" fill="#4a2f7a"/><rect x="342.2" y="290.8" width="8" height="8" rx="2" fill="#16161d"/><rect x="342.2" y="301.0" width="8" height="8" rx="2" fill="#16161d"/><rect x="342.2" y="311.2" width="8" height="8" rx="2" fill="#c084fc"/><rect x="352.4" y="250.0" width="8" height="8" rx="2" fill="#2d1f4d"/><rect x="352.4" y="260.2" width="8" height="8" rx="2" fill="#16161d"/><rect x="352.4" y="270.4" width="8" height="8" rx="2" fill="#2d1f4d"/><rect x="352.4" y="280.6" width="8" height="8" rx="2" fill="#16161d"/><rect x="352.4" y="290.8" width="8" height="8" rx="2" fill="#2d1f4d"/><rect x="352.4" y="301.0" width="8" height="8" rx="2" fill="#c084fc"/><rect x="352.4" y="311.2" width="8" height="8" rx="2" fill="#7c6ff7"/><rect x="362.6" y="250.0" width="8" height="8" rx="2" fill="#4a2f7a"/><rect x="362.6" y="260.2" width="8" height="8" rx="2" fill="#16161d"/><rect x="362.6" y="270.4" width="8" height="8" rx="2" fill="#16161d"/><rect x="362.6" y="280.6" width="8" height="8" rx="2" fill="#16161d"/><rect x="362.6" y="290.8" width="8" height="8" rx="2" fill="#4a2f7a"/><rect x="362.6" y="301.0" width="8" height="8" rx="2" fill="#2d1f4d"/><rect x="362.6" y="311.2" width="8" height="8" rx="2" fill="#4a2f7a"/><rect x="372.8" y="250.0" width="8" height="8" rx="2" fill="#16161d"/><rect x="372.8" y="260.2" width="8" height="8" rx="2" fill="#16161d"/><rect x="372.8" y="270.4" width="8" height="8" rx="2" fill="#4a2f7a"/><rect x="372.8" y="280.6" width="8" height="8" rx="2" fill="#c084fc"/><rect x="372.8" y="290.8" width="8" height="8" rx="2" fill="#7c6ff7"/><rect x="372.8" y="301.0" width="8" height="8" rx="2" fill="#4a2f7a"/><rect x="372.8" y="311.2" width="8" height="8" rx="2" fill="#4a2f7a"/><rect x="383.0" y="250.0" width="8" height="8" rx="2" fill="#4a2f7a"/><rect x="383.0" y="260.2" width="8" height="8" rx="2" fill="#16161d"/><rect x="383.0" y="270.4" width="8" height="8" rx="2" fill="#2d1f4d"/><rect x="383.0" y="280.6" width="8" height="8" rx="2" fill="#16161d"/><rect x="383.0" y="290.8" width="8" height="8" rx="2" fill="#16161d"/><rect x="383.0" y="301.0" width="8" height="8" rx="2" fill="#16161d"/><rect x="383.0" y="311.2" width="8" height="8" rx="2" fill="#16161d"/></g>
</g>
</svg>