<svg viewBox="0 0 1280 640" xmlns="http://www.w3.org/2000/svg" font-family="Inter, system-ui, -apple-system, sans-serif" role="img" aria-label="Meridian">
<defs><linearGradient id="ic2" x1="0" y1="0" x2="1" y2="1"><stop offset="0" stop-color="#7c6ff7"/><stop offset="1" stop-color="#c084fc"/></linearGradient></defs>
<rect width="1280" height="640" fill="#0a0a0d"/>
<g transform="translate(70,232)">
<rect width="64" height="64" rx="16" fill="url(#ic2)"/>
<circle cx="32" cy="32" r="14" fill="none" stroke="#fff" stroke-width="2.4"/>
<ellipse cx="32" cy="32" rx="5.4" ry="14" fill="none" stroke="#fff" stroke-width="2.4"/>
<line x1="17.5" y1="32" x2="46.5" y2="32" stroke="#fff" stroke-width="2.4"/>
</g>
<text x="70" y="360" font-size="54" font-weight="700" letter-spacing="-1.8" fill="#f0f0f3">Meridian</text>
<text x="71" y="394" font-size="16" fill="#8a8a99">Produtividade pessoal</text>
<text x="71" y="416" font-size="16" fill="#8a8a99">um único arquivo HTML</text>
<text x="71" y="460" font-size="13" font-family="ui-monospace,Menlo,monospace" fill="#4a4a58">$ open meridian.html</text>
<text x="71" y="480" font-size="13" font-family="ui-monospace,Menlo,monospace" fill="#4a4a58">zero build · zero deps · offline</text>
<g transform="translate(590,88)">
<rect width="620" height="464" rx="13" fill="#101015" stroke="#22222b" stroke-width="1.5"/>
<rect width="620" height="32" rx="13" fill="#0d0d12"/>
<rect y="19" width="620" height="13" fill="#0d0d12"/>
<circle cx="19" cy="16" r="4.3" fill="#33333f"/>
<circle cx="36" cy="16" r="4.3" fill="#33333f"/>
<circle cx="53" cy="16" r="4.3" fill="#33333f"/>
<text x="310" y="20.5" text-anchor="middle" font-size="10.5" font-family="ui-monospace,monospace" fill="#4a4a58">meridian.html</text>
<rect y="32" width="122" height="432" fill="#0a0a0d"/>
<line x1="122" y1="32" x2="122" y2="464" stroke="#1c1c24" stroke-width="1"/>
<g font-size="11" fill="#8a8a99" font-weight="600">
<text x="17" y="60">Home</text>
<text x="17" y="86">Tasks</text>
<rect x="8" y="96" width="106" height="24" rx="6" fill="#1a1a22"/>
<rect x="8" y="96" width="2.6" height="24" fill="#c084fc"/>
<text x="17" y="112" fill="#f0f0f3">Projetos</text>
<text x="17" y="138">Foco</text>
<text x="17" y="164">Stats</text>
<text x="17" y="190">Links</text>
</g>
<text x="140" y="58" font-size="12" font-weight="700" fill="#f0f0f3">Projetos</text>
<rect x="140" y="72" width="226" height="78" rx="9" fill="#16161d" stroke="#22222b"/>
<circle cx="157" cy="90" r="4.4" fill="#7c6ff7"/>
<rect x="167" y="86" width="74" height="7.5" rx="3" fill="#3a3a46"/>
<rect x="157" y="112" width="192" height="4.5" rx="2" fill="#22222b"/>
<rect x="157" y="112" width="128" height="4.5" rx="2" fill="#7c6ff7"/>
<rect x="157" y="126" width="42" height="6.5" rx="3" fill="#2a2a34"/>
<rect x="378" y="72" width="226" height="78" rx="9" fill="#16161d" stroke="#22222b"/>
<circle cx="395" cy="90" r="4.4" fill="#34d399"/>
<rect x="405" y="86" width="58" height="7.5" rx="3" fill="#3a3a46"/>
<rect x="395" y="112" width="192" height="4.5" rx="2" fill="#22222b"/>
<rect x="395" y="112" width="64" height="4.5" rx="2" fill="#34d399"/>
<rect x="395" y="126" width="52" height="6.5" rx="3" fill="#2a2a34"/>
<rect x="140" y="160" width="226" height="78" rx="9" fill="#16161d" stroke="#22222b"/>
<circle cx="157" cy="178" r="4.4" fill="#60a5fa"/>
<rect x="167" y="174" width="84" height="7.5" rx="3" fill="#3a3a46"/>
<rect x="157" y="200" width="192" height="4.5" rx="2" fill="#22222b"/>
<rect x="157" y="200" width="180" height="4.5" rx="2" fill="#60a5fa"/>
<rect x="157" y="214" width="64" height="6.5" rx="3" fill="#2a2a34"/>
<rect x="378" y="160" width="226" height="78" rx="9" fill="#16161d" stroke="#22222b"/>
<circle cx="395" cy="178" r="4.4" fill="#fb923c"/>
<rect x="405" y="174" width="68" height="7.5" rx="3" fill="#3a3a46"/>
<rect x="395" y="200" width="192" height="4.5" rx="2" fill="#22222b"/>
<rect x="395" y="200" width="32" height="4.5" rx="2" fill="#fb923c"/>
<rect x="395" y="214" width="48" height="6.5" rx="3" fill="#2a2a34"/>
<text x="140" y="268" font-size="11" font-weight="700" fill="#8a8a99">Stats</text>
<g><rect x="140.0" y="280.0" width="9" height="9" rx="2" fill="#2d1f4d"/><rect x="140.0" y="291.2" width="9" height="9" rx="2" fill="#2d1f4d"/><rect x="140.0" y="302.4" width="9" height="9" rx="2" fill="#7c6ff7"/><rect x="140.0" y="313.6" width="9" height="9" rx="2" fill="#2d1f4d"/><rect x="140.0" y="324.8" width="9" height="9" rx="2" fill="#2d1f4d"/><rect x="140.0" y="336.0" width="9" height="9" rx="2" fill="#2d1f4d"/><rect x="140.0" y="347.2" width="9" height="9" rx="2" fill="#16161d"/><rect x="140.0" y="358.4" width="9" height="9" rx="2" fill="#2d1f4d"/><rect x="140.0" y="369.6" width="9" height="9" rx="2" fill="#2d1f4d"/><rect x="140.0" y="380.8" width="9" height="9" rx="2" fill="#4a2f7a"/><rect x="140.0" y="392.0" width="9" height="9" rx="2" fill="#16161d"/><rect x="151.2" y="280.0" width="9" height="9" rx="2" fill="#16161d"/><rect x="151.2" y="291.2" width="9" height="9" rx="2" fill="#16161d"/><rect x="151.2" y="302.4" width="9" height="9" rx="2" fill="#4a2f7a"/><rect x="151.2" y="313.6" width="9" height="9" rx="2" fill="#4a2f7a"/><rect x="151.2" y="324.8" width="9" height="9" rx="2" fill="#16161d"/><rect x="151.2" y="336.0" width="9" height="9" rx="2" fill="#c084fc"/><rect x="151.2" y="347.2" width="9" height="9" rx="2" fill="#c084fc"/><rect x="151.2" y="358.4" width="9" height="9" rx="2" fill="#4a2f7a"/><rect x="151.2" y="369.6" width="9" height="9" rx="2" fill="#2d1f4d"/><rect x="151.2" y="380.8" width="9" height="9" rx="2" fill="#16161d"/><rect x="151.2" y="392.0" width="9" height="9" rx="2" fill="#16161d"/><rect x="162.4" y="280.0" width="9" height="9" rx="2" fill="#2d1f4d"/><rect x="162.4" y="291.2" width="9" height="9" rx="2" fill="#16161d"/><rect x="162.4" y="302.4" width="9" height="9" rx="2" fill="#16161d"/><rect x="162.4" y="313.6" width="9" height="9" rx="2" fill="#16161d"/><rect x="162.4" y="324.8" width="9" height="9" rx="2" fill="#16161d"/><rect x="162.4" y="336.0" width="9" height="9" rx="2" fill="#2d1f4d"/><rect x="162.4" y="347.2" width="9" height="9" rx="2" fill="#2d1f4d"/><rect x="162.4" y="358.4" width="9" height="9" rx="2" fill="#7c6ff7"/><rect x="162.4" y="369.6" width="9" height="9" rx="2" fill="#2d1f4d"/><rect x="162.4" y="380.8" width="9" height="9" rx="2" fill="#2d1f4d"/><rect x="162.4" y="392.0" width="9" height="9" rx="2" fill="#2d1f4d"/><rect x="173.6" y="280.0" width="9" height="9" rx="2" fill="#4a2f7a"/><rect x="173.6" y="291.2" width="9" height="9" rx="2" fill="#2d1f4d"/><rect x="173.6" y="302.4" width="9" height="9" rx="2" fill="#16161d"/><rect x="173.6" y="313.6" width="9" height="9" rx="2" fill="#c084fc"/><rect x="173.6" y="324.8" width="9" height="9" rx="2" fill="#c084fc"/><rect x="173.6" y="336.0" width="9" height="9" rx="2" fill="#7c6ff7"/><rect x="173.6" y="347.2" width="9" height="9" rx="2" fill="#4a2f7a"/><rect x="173.6" y="358.4" width="9" height="9" rx="2" fill="#16161d"/><rect x="173.6" y="369.6" width="9" height="9" rx="2" fill="#16161d"/><rect x="173.6" y="380.8" width="9" height="9" rx="2" fill="#16161d"/><rect x="173.6" y="392.0" width="9" height="9" rx="2" fill="#16161d"/><rect x="184.8" y="280.0" width="9" height="9" rx="2" fill="#4a2f7a"/><rect x="184.8" y="291.2" width="9" height="9" rx="2" fill="#2d1f4d"/><rect x="184.8" y="302.4" width="9" height="9" rx="2" fill="#7c6ff7"/><rect x="184.8" y="313.6" width="9" height="9" rx="2" fill="#16161d"/><rect x="184.8" y="324.8" width="9" height="9" rx="2" fill="#c084fc"/><rect x="184.8" y="336.0" width="9" height="9" rx="2" fill="#7c6ff7"/><rect x="184.8" y="347.2" width="9" height="9" rx="2" fill="#16161d"/><rect x="184.8" y="358.4" width="9" height="9" rx="2" fill="#16161d"/><rect x="184.8" y="369.6" width="9" height="9" rx="2" fill="#7c6ff7"/><rect x="184.8" y="380.8" width="9" height="9" rx="2" fill="#2d1f4d"/><rect x="184.8" y="392.0" width="9" height="9" rx="2" fill="#c084fc"/><rect x="196.0" y="280.0" width="9" height="9" rx="2" fill="#16161d"/><rect x="196.0" y="291.2" width="9" height="9" rx="2" fill="#16161d"/><rect x="196.0" y="302.4" width="9" height="9" rx="2" fill="#2d1f4d"/><rect x="196.0" y="313.6" width="9" height="9" rx="2" fill="#4a2f7a"/><rect x="196.0" y="324.8" width="9" height="9" rx="2" fill="#16161d"/><rect x="196.0" y="336.0" width="9" height="9" rx="2" fill="#16161d"/><rect x="196.0" y="347.2" width="9" height="9" rx="2" fill="#16161d"/><rect x="196.0" y="358.4" width="9" height="9" rx="2" fill="#c084fc"/><rect x="196.0" y="369.6" width="9" height="9" rx="2" fill="#4a2f7a"/><rect x="196.0" y="380.8" width="9" height="9" rx="2" fill="#16161d"/><rect x="196.0" y="392.0" width="9" height="9" rx="2" fill="#16161d"/><rect x="207.2" y="280.0" width="9" height="9" rx="2" fill="#16161d"/><rect x="207.2" y="291.2" width="9" height="9" rx="2" fill="#16161d"/><rect x="207.2" y="302.4" width="9" height="9" rx="2" fill="#4a2f7a"/><rect x="207.2" y="313.6" width="9" height="9" rx="2" fill="#16161d"/><rect x="207.2" y="324.8" width="9" height="9" rx="2" fill="#2d1f4d"/><rect x="207.2" y="336.0" width="9" height="9" rx="2" fill="#2d1f4d"/><rect x="207.2" y="347.2" width="9" height="9" rx="2" fill="#16161d"/><rect x="207.2" y="358.4" width="9" height="9" rx="2" fill="#4a2f7a"/><rect x="207.2" y="369.6" width="9" height="9" rx="2" fill="#16161d"/><rect x="207.2" y="380.8" width="9" height="9" rx="2" fill="#2d1f4d"/><rect x="207.2" y="392.0" width="9" height="9" rx="2" fill="#16161d"/><rect x="218.4" y="280.0" width="9" height="9" rx="2" fill="#2d1f4d"/><rect x="218.4" y="291.2" width="9" height="9" rx="2" fill="#16161d"/><rect x="218.4" y="302.4" width="9" height="9" rx="2" fill="#16161d"/><rect x="218.4" y="313.6" width="9" height="9" rx="2" fill="#c084fc"/><rect x="218.4" y="324.8" width="9" height="9" rx="2" fill="#4a2f7a"/><rect x="218.4" y="336.0" width="9" height="9" rx="2" fill="#16161d"/><rect x="218.4" y="347.2" width="9" height="9" rx="2" fill="#7c6ff7"/><rect x="218.4" y="358.4" width="9" height="9" rx="2" fill="#16161d"/><rect x="218.4" y="369.6" width="9" height="9" rx="2" fill="#16161d"/><rect x="218.4" y="380.8" width="9" height="9" rx="2" fill="#7c6ff7"/><rect x="218.4" y="392.0" width="9" height="9" rx="2" fill="#2d1f4d"/><rect x="229.6" y="280.0" width="9" height="9" rx="2" fill="#16161d"/><rect x="229.6" y="291.2" width="9" height="9" rx="2" fill="#c084fc"/><rect x="229.6" y="302.4" width="9" height="9" rx="2" fill="#16161d"/><rect x="229.6" y="313.6" width="9" height="9" rx="2" fill="#16161d"/><rect x="229.6" y="324.8" width="9" height="9" rx="2" fill="#4a2f7a"/><rect x="229.6" y="336.0" width="9" height="9" rx="2" fill="#16161d"/><rect x="229.6" y="347.2" width="9" height="9" rx="2" fill="#16161d"/><rect x="229.6" y="358.4" width="9" height="9" rx="2" fill="#16161d"/><rect x="229.6" y="369.6" width="9" height="9" rx="2" fill="#16161d"/><rect x="229.6" y="380.8" width="9" height="9" rx="2" fill="#2d1f4d"/><rect x="229.6" y="392.0" width="9" height="9" rx="2" fill="#16161d"/><rect x="240.8" y="280.0" width="9" height="9" rx="2" fill="#2d1f4d"/><rect x="240.8" y="291.2" width="9" height="9" rx="2" fill="#16161d"/><rect x="240.8" y="302.4" width="9" height="9" rx="2" fill="#2d1f4d"/><rect x="240.8" y="313.6" width="9" height="9" rx="2" fill="#c084fc"/><rect x="240.8" y="324.8" width="9" height="9" rx="2" fill="#2d1f4d"/><rect x="240.8" y="336.0" width="9" height="9" rx="2" fill="#2d1f4d"/><rect x="240.8" y="347.2" width="9" height="9" rx="2" fill="#7c6ff7"/><rect x="240.8" y="358.4" width="9" height="9" rx="2" fill="#16161d"/><rect x="240.8" y="369.6" width="9" height="9" rx="2" fill="#16161d"/><rect x="240.8" y="380.8" width="9" height="9" rx="2" fill="#7c6ff7"/><rect x="240.8" y="392.0" width="9" height="9" rx="2" fill="#4a2f7a"/><rect x="252.0" y="280.0" width="9" height="9" rx="2" fill="#16161d"/><rect x="252.0" y="291.2" width="9" height="9" rx="2" fill="#16161d"/><rect x="252.0" y="302.4" width="9" height="9" rx="2" fill="#4a2f7a"/><rect x="252.0" y="313.6" width="9" height="9" rx="2" fill="#7c6ff7"/><rect x="252.0" y="324.8" width="9" height="9" rx="2" fill="#16161d"/><rect x="252.0" y="336.0" width="9" height="9" rx="2" fill="#c084fc"/><rect x="252.0" y="347.2" width="9" height="9" rx="2" fill="#7c6ff7"/><rect x="252.0" y="358.4" width="9" height="9" rx="2" fill="#2d1f4d"/><rect x="252.0" y="369.6" width="9" height="9" rx="2" fill="#2d1f4d"/><rect x="252.0" y="380.8" width="9" height="9" rx="2" fill="#16161d"/><rect x="252.0" y="392.0" width="9" height="9" rx="2" fill="#16161d"/><rect x="263.2" y="280.0" width="9" height="9" rx="2" fill="#c084fc"/><rect x="263.2" y="291.2" width="9" height="9" rx="2" fill="#16161d"/><rect x="263.2" y="302.4" width="9" height="9" rx="2" fill="#4a2f7a"/><rect x="263.2" y="313.6" width="9" height="9" rx="2" fill="#16161d"/><rect x="263.2" y="324.8" width="9" height="9" rx="2" fill="#4a2f7a"/><rect x="263.2" y="336.0" width="9" height="9" rx="2" fill="#2d1f4d"/><rect x="263.2" y="347.2" width="9" height="9" rx="2" fill="#16161d"/><rect x="263.2" y="358.4" width="9" height="9" rx="2" fill="#16161d"/><rect x="263.2" y="369.6" width="9" height="9" rx="2" fill="#4a2f7a"/><rect x="263.2" y="380.8" width="9" height="9" rx="2" fill="#16161d"/><rect x="263.2" y="392.0" width="9" height="9" rx="2" fill="#16161d"/><rect x="274.4" y="280.0" width="9" height="9" rx="2" fill="#2d1f4d"/><rect x="274.4" y="291.2" width="9" height="9" rx="2" fill="#7c6ff7"/><rect x="274.4" y="302.4" width="9" height="9" rx="2" fill="#2d1f4d"/><rect x="274.4" y="313.6" width="9" height="9" rx="2" fill="#16161d"/><rect x="274.4" y="324.8" width="9" height="9" rx="2" fill="#7c6ff7"/><rect x="274.4" y="336.0" width="9" height="9" rx="2" fill="#16161d"/><rect x="274.4" y="347.2" width="9" height="9" rx="2" fill="#16161d"/><rect x="274.4" y="358.4" width="9" height="9" rx="2" fill="#16161d"/><rect x="274.4" y="369.6" width="9" height="9" rx="2" fill="#2d1f4d"/><rect x="274.4" y="380.8" width="9" height="9" rx="2" fill="#16161d"/><rect x="274.4" y="392.0" width="9" height="9" rx="2" fill="#16161d"/><rect x="285.6" y="280.0" width="9" height="9" rx="2" fill="#16161d"/><rect x="285.6" y="291.2" width="9" height="9" rx="2" fill="#2d1f4d"/><rect x="285.6" y="302.4" width="9" height="9" rx="2" fill="#16161d"/><rect x="285.6" y="313.6" width="9" height="9" rx="2" fill="#16161d"/><rect x="285.6" y="324.8" width="9" height="9" rx="2" fill="#7c6ff7"/><rect x="285.6" y="336.0" width="9" height="9" rx="2" fill="#c084fc"/><rect x="285.6" y="347.2" width="9" height="9" rx="2" fill="#4a2f7a"/><rect x="285.6" y="358.4" width="9" height="9" rx="2" fill="#4a2f7a"/><rect x="285.6" y="369.6" width="9" height="9" rx="2" fill="#2d1f4d"/><rect x="285.6" y="380.8" width="9" height="9" rx="2" fill="#16161d"/><rect x="285.6" y="392.0" width="9" height="9" rx="2" fill="#16161d"/><rect x="296.8" y="280.0" width="9" height="9" rx="2" fill="#16161d"/><rect x="296.8" y="291.2" width="9" height="9" rx="2" fill="#7c6ff7"/><rect x="296.8" y="302.4" width="9" height="9" rx="2" fill="#4a2f7a"/><rect x="296.8" y="313.6" width="9" height="9" rx="2" fill="#c084fc"/><rect x="296.8" y="324.8" width="9" height="9" rx="2" fill="#16161d"/><rect x="296.8" y="336.0" width="9" height="9" rx="2" fill="#2d1f4d"/><rect x="296.8" y="347.2" width="9" height="9" rx="2" fill="#2d1f4d"/><rect x="296.8" y="358.4" width="9" height="9" rx="2" fill="#4a2f7a"/><rect x="296.8" y="369.6" width="9" height="9" rx="2" fill="#16161d"/><rect x="296.8" y="380.8" width="9" height="9" rx="2" fill="#c084fc"/><rect x="296.8" y="392.0" width="9" height="9" rx="2" fill="#16161d"/><rect x="308.0" y="280.0" width="9" height="9" rx="2" fill="#2d1f4d"/><rect x="308.0" y="291.2" width="9" height="9" rx="2" fill="#4a2f7a"/><rect x="308.0" y="302.4" width="9" height="9" rx="2" fill="#7c6ff7"/><rect x="308.0" y="313.6" width="9" height="9" rx="2" fill="#4a2f7a"/><rect x="308.0" y="324.8" width="9" height="9" rx="2" fill="#4a2f7a"/><rect x="308.0" y="336.0" width="9" height="9" rx="2" fill="#4a2f7a"/><rect x="308.0" y="347.2" width="9" height="9" rx="2" fill="#7c6ff7"/><rect x="308.0" y="358.4" width="9" height="9" rx="2" fill="#16161d"/><rect x="308.0" y="369.6" width="9" height="9" rx="2" fill="#4a2f7a"/><rect x="308.0" y="380.8" width="9" height="9" rx="2" fill="#7c6ff7"/><rect x="308.0" y="392.0" width="9" height="9" rx="2" fill="#7c6ff7"/><rect x="319.2" y="280.0" width="9" height="9" rx="2" fill="#2d1f4d"/><rect x="319.2" y="291.2" width="9" height="9" rx="2" fill="#4a2f7a"/><rect x="319.2" y="302.4" width="9" height="9" rx="2" fill="#7c6ff7"/><rect x="319.2" y="313.6" width="9" height="9" rx="2" fill="#2d1f4d"/><rect x="319.2" y="324.8" width="9" height="9" rx="2" fill="#2d1f4d"/><rect x="319.2" y="336.0" width="9" height="9" rx="2" fill="#16161d"/><rect x="319.2" y="347.2" width="9" height="9" rx="2" fill="#2d1f4d"/><rect x="319.2" y="358.4" width="9" height="9" rx="2" fill="#2d1f4d"/><rect x="319.2" y="369.6" width="9" height="9" rx="2" fill="#16161d"/><rect x="319.2" y="380.8" width="9" height="9" rx="2" fill="#2d1f4d"/><rect x="319.2" y="392.0" width="9" height="9" rx="2" fill="#c084fc"/><rect x="330.4" y="280.0" width="9" height="9" rx="2" fill="#7c6ff7"/><rect x="330.4" y="291.2" width="9" height="9" rx="2" fill="#4a2f7a"/><rect x="330.4" y="302.4" width="9" height="9" rx="2" fill="#16161d"/><rect x="330.4" y="313.6" width="9" height="9" rx="2" fill="#4a2f7a"/><rect x="330.4" y="324.8" width="9" height="9" rx="2" fill="#2d1f4d"/><rect x="330.4" y="336.0" width="9" height="9" rx="2" fill="#2d1f4d"/><rect x="330.4" y="347.2" width="9" height="9" rx="2" fill="#7c6ff7"/><rect x="330.4" y="358.4" width="9" height="9" rx="2" fill="#16161d"/><rect x="330.4" y="369.6" width="9" height="9" rx="2" fill="#4a2f7a"/><rect x="330.4" y="380.8" width="9" height="9" rx="2" fill="#16161d"/><rect x="330.4" y="392.0" width="9" height="9" rx="2" fill="#2d1f4d"/><rect x="341.6" y="280.0" width="9" height="9" rx="2" fill="#2d1f4d"/><rect x="341.6" y="291.2" width="9" height="9" rx="2" fill="#16161d"/><rect x="341.6" y="302.4" width="9" height="9" rx="2" fill="#4a2f7a"/><rect x="341.6" y="313.6" width="9" height="9" rx="2" fill="#2d1f4d"/><rect x="341.6" y="324.8" width="9" height="9" rx="2" fill="#2d1f4d"/><rect x="341.6" y="336.0" width="9" height="9" rx="2" fill="#7c6ff7"/><rect x="341.6" y="347.2" width="9" height="9" rx="2" fill="#16161d"/><rect x="341.6" y="358.4" width="9" height="9" rx="2" fill="#16161d"/><rect x="341.6" y="369.6" width="9" height="9" rx="2" fill="#16161d"/><rect x="341.6" y="380.8" width="9" height="9" rx="2" fill="#4a2f7a"/><rect x="341.6" y="392.0" width="9" height="9" rx="2" fill="#16161d"/><rect x="352.8" y="280.0" width="9" height="9" rx="2" fill="#16161d"/><rect x="352.8" y="291.2" width="9" height="9" rx="2" fill="#7c6ff7"/><rect x="352.8" y="302.4" width="9" height="9" rx="2" fill="#4a2f7a"/><rect x="352.8" y="313.6" width="9" height="9" rx="2" fill="#2d1f4d"/><rect x="352.8" y="324.8" width="9" height="9" rx="2" fill="#7c6ff7"/><rect x="352.8" y="336.0" width="9" height="9" rx="2" fill="#16161d"/><rect x="352.8" y="347.2" width="9" height="9" rx="2" fill="#4a2f7a"/><rect x="352.8" y="358.4" width="9" height="9" rx="2" fill="#16161d"/><rect x="352.8" y="369.6" width="9" height="9" rx="2" fill="#2d1f4d"/><rect x="352.8" y="380.8" width="9" height="9" rx="2" fill="#4a2f7a"/><rect x="352.8" y="392.0" width="9" height="9" rx="2" fill="#7c6ff7"/><rect x="364.0" y="280.0" width="9" height="9" rx="2" fill="#7c6ff7"/><rect x="364.0" y="291.2" width="9" height="9" rx="2" fill="#16161d"/><rect x="364.0" y="302.4" width="9" height="9" rx="2" fill="#2d1f4d"/><rect x="364.0" y="313.6" width="9" height="9" rx="2" fill="#16161d"/><rect x="364.0" y="324.8" width="9" height="9" rx="2" fill="#16161d"/><rect x="364.0" y="336.0" width="9" height="9" rx="2" fill="#2d1f4d"/><rect x="364.0" y="347.2" width="9" height="9" rx="2" fill="#7c6ff7"/><rect x="364.0" y="358.4" width="9" height="9" rx="2" fill="#7c6ff7"/><rect x="364.0" y="369.6" width="9" height="9" rx="2" fill="#4a2f7a"/><rect x="364.0" y="380.8" width="9" height="9" rx="2" fill="#c084fc"/><rect x="364.0" y="392.0" width="9" height="9" rx="2" fill="#16161d"/><rect x="375.2" y="280.0" width="9" height="9" rx="2" fill="#16161d"/><rect x="375.2" y="291.2" width="9" height="9" rx="2" fill="#2d1f4d"/><rect x="375.2" y="302.4" width="9" height="9" rx="2" fill="#16161d"/><rect x="375.2" y="313.6" width="9" height="9" rx="2" fill="#16161d"/><rect x="375.2" y="324.8" width="9" height="9" rx="2" fill="#2d1f4d"/><rect x="375.2" y="336.0" width="9" height="9" rx="2" fill="#2d1f4d"/><rect x="375.2" y="347.2" width="9" height="9" rx="2" fill="#2d1f4d"/><rect x="375.2" y="358.4" width="9" height="9" rx="2" fill="#16161d"/><rect x="375.2" y="369.6" width="9" height="9" rx="2" fill="#7c6ff7"/><rect x="375.2" y="380.8" width="9" height="9" rx="2" fill="#c084fc"/><rect x="375.2" y="392.0" width="9" height="9" rx="2" fill="#2d1f4d"/><rect x="386.4" y="280.0" width="9" height="9" rx="2" fill="#16161d"/><rect x="386.4" y="291.2" width="9" height="9" rx="2" fill="#16161d"/><rect x="386.4" y="302.4" width="9" height="9" rx="2" fill="#7c6ff7"/><rect x="386.4" y="313.6" width="9" height="9" rx="2" fill="#16161d"/><rect x="386.4" y="324.8" width="9" height="9" rx="2" fill="#4a2f7a"/><rect x="386.4" y="336.0" width="9" height="9" rx="2" fill="#2d1f4d"/><rect x="386.4" y="347.2" width="9" height="9" rx="2" fill="#16161d"/><rect x="386.4" y="358.4" width="9" height="9" rx="2" fill="#4a2f7a"/><rect x="386.4" y="369.6" width="9" height="9" rx="2" fill="#16161d"/><rect x="386.4" y="380.8" width="9" height="9" rx="2" fill="#16161d"/><rect x="386.4" y="392.0" width="9" height="9" rx="2" fill="#2d1f4d"/><rect x="397.6" y="280.0" width="9" height="9" rx="2" fill="#16161d"/><rect x="397.6" y="291.2" width="9" height="9" rx="2" fill="#4a2f7a"/><rect x="397.6" y="302.4" width="9" height="9" rx="2" fill="#16161d"/><rect x="397.6" y="313.6" width="9" height="9" rx="2" fill="#16161d"/><rect x="397.6" y="324.8" width="9" height="9" rx="2" fill="#16161d"/><rect x="397.6" y="336.0" width="9" height="9" rx="2" fill="#2d1f4d"/><rect x="397.6" y="347.2" width="9" height="9" rx="2" fill="#2d1f4d"/><rect x="397.6" y="358.4" width="9" height="9" rx="2" fill="#2d1f4d"/><rect x="397.6" y="369.6" width="9" height="9" rx="2" fill="#4a2f7a"/><rect x="397.6" y="380.8" width="9" height="9" rx="2" fill="#4a2f7a"/><rect x="397.6" y="392.0" width="9" height="9" rx="2" fill="#c084fc"/></g>
</g>
</svg>